<mxfile host="app.diagrams.net" modified="2022-09-15T21:05:04.015Z" agent="5.0 (Windows NT 10.0; Win64; x64) AppleWebKit/537.36 (KHTML, like Gecko) Chrome/105.0.0.0 Safari/537.36" etag="vv64WgIdWW2fiES5U7In" version="20.3.0" type="github">
  <diagram id="cFJxvRbgg3J_Aub9vXOd" name="PÃ¡gina-1">
    <mxGraphModel dx="1038" dy="571" grid="1" gridSize="10" guides="1" tooltips="1" connect="1" arrows="1" fold="1" page="1" pageScale="1" pageWidth="827" pageHeight="1169" math="0" shadow="0">
      <root>
        <mxCell id="0" />
        <mxCell id="1" parent="0" />
        <mxCell id="iiTU_1jp6Fe8OuMYfpJf-1" value="&lt;b&gt;MODELO CONCEPTUAL&lt;/b&gt;" style="text;html=1;strokeColor=none;fillColor=none;align=center;verticalAlign=middle;whiteSpace=wrap;rounded=0;" parent="1" vertex="1">
          <mxGeometry x="50" y="75" width="160" height="30" as="geometry" />
        </mxCell>
        <mxCell id="iiTU_1jp6Fe8OuMYfpJf-20" value="" style="edgeStyle=orthogonalEdgeStyle;rounded=0;orthogonalLoop=1;jettySize=auto;html=1;endArrow=none;endFill=0;" parent="1" source="iiTU_1jp6Fe8OuMYfpJf-2" target="iiTU_1jp6Fe8OuMYfpJf-19" edge="1">
          <mxGeometry relative="1" as="geometry">
            <mxPoint x="225" y="470" as="targetPoint" />
          </mxGeometry>
        </mxCell>
        <mxCell id="iiTU_1jp6Fe8OuMYfpJf-2" value="persona" style="rounded=1;arcSize=10;whiteSpace=wrap;html=1;align=center;" parent="1" vertex="1">
          <mxGeometry x="175" y="540" width="100" height="40" as="geometry" />
        </mxCell>
        <mxCell id="iiTU_1jp6Fe8OuMYfpJf-6" value="" style="edgeStyle=orthogonalEdgeStyle;rounded=0;orthogonalLoop=1;jettySize=auto;html=1;endArrow=none;endFill=0;entryX=0;entryY=0.5;entryDx=0;entryDy=0;" parent="1" source="iiTU_1jp6Fe8OuMYfpJf-3" target="iiTU_1jp6Fe8OuMYfpJf-9" edge="1">
          <mxGeometry relative="1" as="geometry" />
        </mxCell>
        <mxCell id="iiTU_1jp6Fe8OuMYfpJf-65" value="" style="edgeStyle=orthogonalEdgeStyle;rounded=0;orthogonalLoop=1;jettySize=auto;html=1;endArrow=none;endFill=0;entryX=0.5;entryY=1;entryDx=0;entryDy=0;" parent="1" source="iiTU_1jp6Fe8OuMYfpJf-3" target="iiTU_1jp6Fe8OuMYfpJf-2" edge="1">
          <mxGeometry relative="1" as="geometry">
            <mxPoint x="255" y="670" as="targetPoint" />
          </mxGeometry>
        </mxCell>
        <mxCell id="iiTU_1jp6Fe8OuMYfpJf-3" value="tiene" style="rhombus;whiteSpace=wrap;html=1;rounded=1;arcSize=10;" parent="1" vertex="1">
          <mxGeometry x="295" y="630" width="80" height="80" as="geometry" />
        </mxCell>
        <mxCell id="iiTU_1jp6Fe8OuMYfpJf-8" value="" style="edgeStyle=orthogonalEdgeStyle;rounded=0;orthogonalLoop=1;jettySize=auto;html=1;endArrow=none;endFill=0;" parent="1" source="iiTU_1jp6Fe8OuMYfpJf-5" target="iiTU_1jp6Fe8OuMYfpJf-7" edge="1">
          <mxGeometry relative="1" as="geometry" />
        </mxCell>
        <mxCell id="iiTU_1jp6Fe8OuMYfpJf-5" value="tarea" style="whiteSpace=wrap;html=1;rounded=1;arcSize=10;" parent="1" vertex="1">
          <mxGeometry x="475" y="420" width="120" height="60" as="geometry" />
        </mxCell>
        <mxCell id="iiTU_1jp6Fe8OuMYfpJf-10" value="" style="edgeStyle=orthogonalEdgeStyle;rounded=0;orthogonalLoop=1;jettySize=auto;html=1;endArrow=none;endFill=0;" parent="1" source="iiTU_1jp6Fe8OuMYfpJf-7" target="iiTU_1jp6Fe8OuMYfpJf-9" edge="1">
          <mxGeometry relative="1" as="geometry" />
        </mxCell>
        <mxCell id="iiTU_1jp6Fe8OuMYfpJf-7" value="pertenece" style="rhombus;whiteSpace=wrap;html=1;rounded=1;arcSize=10;" parent="1" vertex="1">
          <mxGeometry x="495" y="520" width="80" height="80" as="geometry" />
        </mxCell>
        <mxCell id="iiTU_1jp6Fe8OuMYfpJf-9" value="categoria" style="whiteSpace=wrap;html=1;rounded=1;arcSize=10;" parent="1" vertex="1">
          <mxGeometry x="475" y="640" width="120" height="60" as="geometry" />
        </mxCell>
        <mxCell id="iiTU_1jp6Fe8OuMYfpJf-48" style="rounded=0;orthogonalLoop=1;jettySize=auto;html=1;exitX=1;exitY=1;exitDx=0;exitDy=0;entryX=0;entryY=0.25;entryDx=0;entryDy=0;endArrow=none;endFill=0;" parent="1" source="iiTU_1jp6Fe8OuMYfpJf-11" edge="1">
          <mxGeometry relative="1" as="geometry">
            <mxPoint x="175" y="550" as="targetPoint" />
          </mxGeometry>
        </mxCell>
        <mxCell id="iiTU_1jp6Fe8OuMYfpJf-11" value="ci" style="ellipse;whiteSpace=wrap;html=1;align=center;fontStyle=4;fillColor=#dae8fc;strokeColor=#6c8ebf;" parent="1" vertex="1">
          <mxGeometry x="95" y="480" width="70" height="40" as="geometry" />
        </mxCell>
        <mxCell id="iiTU_1jp6Fe8OuMYfpJf-49" style="edgeStyle=none;rounded=0;orthogonalLoop=1;jettySize=auto;html=1;exitX=1;exitY=0.5;exitDx=0;exitDy=0;endArrow=none;endFill=0;" parent="1" source="iiTU_1jp6Fe8OuMYfpJf-12" edge="1">
          <mxGeometry relative="1" as="geometry">
            <mxPoint x="175" y="550" as="targetPoint" />
          </mxGeometry>
        </mxCell>
        <mxCell id="iiTU_1jp6Fe8OuMYfpJf-12" value="primer_nombre" style="ellipse;whiteSpace=wrap;html=1;align=center;" parent="1" vertex="1">
          <mxGeometry x="60" y="530" width="90" height="30" as="geometry" />
        </mxCell>
        <mxCell id="iiTU_1jp6Fe8OuMYfpJf-51" style="edgeStyle=none;rounded=0;orthogonalLoop=1;jettySize=auto;html=1;exitX=1;exitY=0.5;exitDx=0;exitDy=0;entryX=0.188;entryY=1.075;entryDx=0;entryDy=0;entryPerimeter=0;endArrow=none;endFill=0;" parent="1" source="iiTU_1jp6Fe8OuMYfpJf-13" edge="1">
          <mxGeometry relative="1" as="geometry">
            <mxPoint x="193.79999999999995" y="583" as="targetPoint" />
          </mxGeometry>
        </mxCell>
        <mxCell id="iiTU_1jp6Fe8OuMYfpJf-13" value="primer_apellido" style="ellipse;whiteSpace=wrap;html=1;align=center;" parent="1" vertex="1">
          <mxGeometry x="45" y="610" width="100" height="30" as="geometry" />
        </mxCell>
        <mxCell id="iiTU_1jp6Fe8OuMYfpJf-52" style="edgeStyle=none;rounded=0;orthogonalLoop=1;jettySize=auto;html=1;exitX=0.5;exitY=0;exitDx=0;exitDy=0;endArrow=none;endFill=0;" parent="1" source="iiTU_1jp6Fe8OuMYfpJf-15" target="iiTU_1jp6Fe8OuMYfpJf-2" edge="1">
          <mxGeometry relative="1" as="geometry">
            <mxPoint x="145" y="620" as="sourcePoint" />
          </mxGeometry>
        </mxCell>
        <mxCell id="iiTU_1jp6Fe8OuMYfpJf-15" value="segundo_apellido" style="ellipse;whiteSpace=wrap;html=1;align=center;" parent="1" vertex="1">
          <mxGeometry x="95" y="670" width="100" height="30" as="geometry" />
        </mxCell>
        <mxCell id="iiTU_1jp6Fe8OuMYfpJf-50" style="edgeStyle=none;rounded=0;orthogonalLoop=1;jettySize=auto;html=1;exitX=1;exitY=0.5;exitDx=0;exitDy=0;entryX=0;entryY=1;entryDx=0;entryDy=0;endArrow=none;endFill=0;" parent="1" source="iiTU_1jp6Fe8OuMYfpJf-16" edge="1">
          <mxGeometry relative="1" as="geometry">
            <mxPoint x="175" y="580" as="targetPoint" />
          </mxGeometry>
        </mxCell>
        <mxCell id="iiTU_1jp6Fe8OuMYfpJf-16" value="segundo_nombre" style="ellipse;whiteSpace=wrap;html=1;align=center;" parent="1" vertex="1">
          <mxGeometry x="45" y="570" width="90" height="30" as="geometry" />
        </mxCell>
        <mxCell id="iiTU_1jp6Fe8OuMYfpJf-22" value="" style="edgeStyle=orthogonalEdgeStyle;rounded=0;orthogonalLoop=1;jettySize=auto;html=1;endArrow=none;endFill=0;" parent="1" source="iiTU_1jp6Fe8OuMYfpJf-19" target="iiTU_1jp6Fe8OuMYfpJf-21" edge="1">
          <mxGeometry relative="1" as="geometry" />
        </mxCell>
        <mxCell id="iiTU_1jp6Fe8OuMYfpJf-19" value="tiene" style="rhombus;whiteSpace=wrap;html=1;rounded=1;arcSize=10;" parent="1" vertex="1">
          <mxGeometry x="185" y="390" width="80" height="80" as="geometry" />
        </mxCell>
        <mxCell id="iiTU_1jp6Fe8OuMYfpJf-21" value="usuario" style="whiteSpace=wrap;html=1;rounded=1;arcSize=10;" parent="1" vertex="1">
          <mxGeometry x="165" y="290" width="120" height="40" as="geometry" />
        </mxCell>
        <mxCell id="iiTU_1jp6Fe8OuMYfpJf-53" style="edgeStyle=none;rounded=0;orthogonalLoop=1;jettySize=auto;html=1;exitX=1;exitY=0.5;exitDx=0;exitDy=0;entryX=0;entryY=0.75;entryDx=0;entryDy=0;endArrow=none;endFill=0;" parent="1" source="iiTU_1jp6Fe8OuMYfpJf-23" target="iiTU_1jp6Fe8OuMYfpJf-21" edge="1">
          <mxGeometry relative="1" as="geometry" />
        </mxCell>
        <mxCell id="iiTU_1jp6Fe8OuMYfpJf-23" value="usuario" style="ellipse;whiteSpace=wrap;html=1;align=center;" parent="1" vertex="1">
          <mxGeometry x="40" y="280" width="80" height="40" as="geometry" />
        </mxCell>
        <mxCell id="iiTU_1jp6Fe8OuMYfpJf-54" style="edgeStyle=none;rounded=0;orthogonalLoop=1;jettySize=auto;html=1;exitX=1;exitY=0.5;exitDx=0;exitDy=0;entryX=0;entryY=0.25;entryDx=0;entryDy=0;endArrow=none;endFill=0;" parent="1" source="iiTU_1jp6Fe8OuMYfpJf-24" target="iiTU_1jp6Fe8OuMYfpJf-21" edge="1">
          <mxGeometry relative="1" as="geometry" />
        </mxCell>
        <mxCell id="iiTU_1jp6Fe8OuMYfpJf-24" value="password" style="ellipse;whiteSpace=wrap;html=1;align=center;" parent="1" vertex="1">
          <mxGeometry x="40" y="230" width="80" height="40" as="geometry" />
        </mxCell>
        <mxCell id="iiTU_1jp6Fe8OuMYfpJf-55" style="edgeStyle=none;rounded=0;orthogonalLoop=1;jettySize=auto;html=1;exitX=0.5;exitY=1;exitDx=0;exitDy=0;entryX=0.25;entryY=0;entryDx=0;entryDy=0;endArrow=none;endFill=0;" parent="1" source="iiTU_1jp6Fe8OuMYfpJf-25" target="iiTU_1jp6Fe8OuMYfpJf-21" edge="1">
          <mxGeometry relative="1" as="geometry" />
        </mxCell>
        <mxCell id="iiTU_1jp6Fe8OuMYfpJf-25" value="fecha_registro" style="ellipse;whiteSpace=wrap;html=1;align=center;" parent="1" vertex="1">
          <mxGeometry x="140" y="230" width="80" height="40" as="geometry" />
        </mxCell>
        <mxCell id="iiTU_1jp6Fe8OuMYfpJf-56" style="edgeStyle=none;rounded=0;orthogonalLoop=1;jettySize=auto;html=1;exitX=0.5;exitY=1;exitDx=0;exitDy=0;entryX=0;entryY=0.25;entryDx=0;entryDy=0;endArrow=none;endFill=0;" parent="1" source="iiTU_1jp6Fe8OuMYfpJf-26" target="iiTU_1jp6Fe8OuMYfpJf-5" edge="1">
          <mxGeometry relative="1" as="geometry" />
        </mxCell>
        <mxCell id="iiTU_1jp6Fe8OuMYfpJf-26" value="numero" style="ellipse;whiteSpace=wrap;html=1;align=center;fontStyle=4;fillColor=#dae8fc;strokeColor=#6c8ebf;" parent="1" vertex="1">
          <mxGeometry x="425" y="340" width="50" height="40" as="geometry" />
        </mxCell>
        <mxCell id="iiTU_1jp6Fe8OuMYfpJf-57" style="edgeStyle=none;rounded=0;orthogonalLoop=1;jettySize=auto;html=1;exitX=0.5;exitY=1;exitDx=0;exitDy=0;endArrow=none;endFill=0;" parent="1" source="iiTU_1jp6Fe8OuMYfpJf-27" target="iiTU_1jp6Fe8OuMYfpJf-5" edge="1">
          <mxGeometry relative="1" as="geometry" />
        </mxCell>
        <mxCell id="iiTU_1jp6Fe8OuMYfpJf-27" value="fecha_registro" style="ellipse;whiteSpace=wrap;html=1;align=center;" parent="1" vertex="1">
          <mxGeometry x="485" y="340" width="100" height="30" as="geometry" />
        </mxCell>
        <mxCell id="iiTU_1jp6Fe8OuMYfpJf-58" style="edgeStyle=none;rounded=0;orthogonalLoop=1;jettySize=auto;html=1;exitX=0;exitY=0.5;exitDx=0;exitDy=0;entryX=0.75;entryY=0;entryDx=0;entryDy=0;endArrow=none;endFill=0;" parent="1" source="iiTU_1jp6Fe8OuMYfpJf-29" target="iiTU_1jp6Fe8OuMYfpJf-5" edge="1">
          <mxGeometry relative="1" as="geometry" />
        </mxCell>
        <mxCell id="iiTU_1jp6Fe8OuMYfpJf-29" value="texto" style="ellipse;whiteSpace=wrap;html=1;align=center;" parent="1" vertex="1">
          <mxGeometry x="615" y="350" width="100" height="30" as="geometry" />
        </mxCell>
        <mxCell id="iiTU_1jp6Fe8OuMYfpJf-59" style="edgeStyle=none;rounded=0;orthogonalLoop=1;jettySize=auto;html=1;exitX=0;exitY=0.5;exitDx=0;exitDy=0;entryX=1;entryY=0.25;entryDx=0;entryDy=0;endArrow=none;endFill=0;" parent="1" source="iiTU_1jp6Fe8OuMYfpJf-30" target="iiTU_1jp6Fe8OuMYfpJf-5" edge="1">
          <mxGeometry relative="1" as="geometry" />
        </mxCell>
        <mxCell id="iiTU_1jp6Fe8OuMYfpJf-30" value="tipo" style="ellipse;whiteSpace=wrap;html=1;align=center;" parent="1" vertex="1">
          <mxGeometry x="615" y="390" width="100" height="30" as="geometry" />
        </mxCell>
        <mxCell id="iiTU_1jp6Fe8OuMYfpJf-31" value="&lt;ul&gt;&lt;li&gt;0: no urgente / no importante (POSTERGAR/ELIMINAR)&amp;nbsp;&lt;/li&gt;&lt;li&gt;1: importante / no urgente (PLANIFICAR/DECIDIR)&lt;/li&gt;&lt;li&gt;2: urgente / no importante (DELEGAR)&lt;/li&gt;&lt;li&gt;3: urgente / importante (HACER YA)&lt;/li&gt;&lt;/ul&gt;" style="text;strokeColor=none;fillColor=none;html=1;whiteSpace=wrap;verticalAlign=middle;overflow=hidden;" parent="1" vertex="1">
          <mxGeometry x="425" y="70" width="370" height="80" as="geometry" />
        </mxCell>
        <mxCell id="iiTU_1jp6Fe8OuMYfpJf-34" value="&lt;b&gt;tipo&lt;/b&gt;" style="text;html=1;strokeColor=none;fillColor=none;align=center;verticalAlign=middle;whiteSpace=wrap;rounded=0;" parent="1" vertex="1">
          <mxGeometry x="460" y="30" width="60" height="30" as="geometry" />
        </mxCell>
        <mxCell id="iiTU_1jp6Fe8OuMYfpJf-60" style="edgeStyle=none;rounded=0;orthogonalLoop=1;jettySize=auto;html=1;exitX=0;exitY=0.5;exitDx=0;exitDy=0;entryX=1;entryY=0.5;entryDx=0;entryDy=0;endArrow=none;endFill=0;" parent="1" source="iiTU_1jp6Fe8OuMYfpJf-35" target="iiTU_1jp6Fe8OuMYfpJf-5" edge="1">
          <mxGeometry relative="1" as="geometry" />
        </mxCell>
        <mxCell id="iiTU_1jp6Fe8OuMYfpJf-35" value="estado" style="ellipse;whiteSpace=wrap;html=1;align=center;" parent="1" vertex="1">
          <mxGeometry x="615" y="440" width="100" height="30" as="geometry" />
        </mxCell>
        <mxCell id="iiTU_1jp6Fe8OuMYfpJf-36" value="&lt;ul&gt;&lt;li&gt;-1: eliminado&lt;/li&gt;&lt;li&gt;0: atrasado&lt;/li&gt;&lt;li&gt;1: completado&lt;/li&gt;&lt;li&gt;2: en_proceso&lt;/li&gt;&lt;/ul&gt;" style="text;strokeColor=none;fillColor=none;html=1;whiteSpace=wrap;verticalAlign=middle;overflow=hidden;" parent="1" vertex="1">
          <mxGeometry x="400" y="190" width="140" height="80" as="geometry" />
        </mxCell>
        <mxCell id="iiTU_1jp6Fe8OuMYfpJf-37" value="&lt;b&gt;estado&lt;/b&gt;" style="text;html=1;strokeColor=none;fillColor=none;align=center;verticalAlign=middle;whiteSpace=wrap;rounded=0;" parent="1" vertex="1">
          <mxGeometry x="430" y="170" width="60" height="30" as="geometry" />
        </mxCell>
        <mxCell id="iiTU_1jp6Fe8OuMYfpJf-61" style="edgeStyle=none;rounded=0;orthogonalLoop=1;jettySize=auto;html=1;exitX=0;exitY=0.5;exitDx=0;exitDy=0;entryX=0.93;entryY=1.003;entryDx=0;entryDy=0;entryPerimeter=0;endArrow=none;endFill=0;" parent="1" source="iiTU_1jp6Fe8OuMYfpJf-38" target="iiTU_1jp6Fe8OuMYfpJf-5" edge="1">
          <mxGeometry relative="1" as="geometry" />
        </mxCell>
        <mxCell id="iiTU_1jp6Fe8OuMYfpJf-38" value="hacer_en_fecha" style="ellipse;whiteSpace=wrap;html=1;align=center;" parent="1" vertex="1">
          <mxGeometry x="615" y="490" width="110" height="30" as="geometry" />
        </mxCell>
        <mxCell id="iiTU_1jp6Fe8OuMYfpJf-39" value="&lt;ul&gt;&lt;li&gt;0: otra fecha&lt;/li&gt;&lt;li&gt;1: hoy&lt;/li&gt;&lt;li&gt;2: maÃ±ana&lt;/li&gt;&lt;/ul&gt;" style="text;strokeColor=none;fillColor=none;html=1;whiteSpace=wrap;verticalAlign=middle;overflow=hidden;" parent="1" vertex="1">
          <mxGeometry x="530" y="190" width="140" height="80" as="geometry" />
        </mxCell>
        <mxCell id="iiTU_1jp6Fe8OuMYfpJf-40" value="&lt;b&gt;hacer_en _fecha&lt;/b&gt;" style="text;html=1;strokeColor=none;fillColor=none;align=center;verticalAlign=middle;whiteSpace=wrap;rounded=0;" parent="1" vertex="1">
          <mxGeometry x="550" y="170" width="120" height="30" as="geometry" />
        </mxCell>
        <mxCell id="iiTU_1jp6Fe8OuMYfpJf-62" style="edgeStyle=none;rounded=0;orthogonalLoop=1;jettySize=auto;html=1;exitX=0;exitY=0.5;exitDx=0;exitDy=0;entryX=0.75;entryY=1;entryDx=0;entryDy=0;endArrow=none;endFill=0;" parent="1" source="iiTU_1jp6Fe8OuMYfpJf-41" target="iiTU_1jp6Fe8OuMYfpJf-5" edge="1">
          <mxGeometry relative="1" as="geometry" />
        </mxCell>
        <mxCell id="iiTU_1jp6Fe8OuMYfpJf-41" value="esta_planificado" style="ellipse;whiteSpace=wrap;html=1;align=center;" parent="1" vertex="1">
          <mxGeometry x="610" y="550" width="110" height="30" as="geometry" />
        </mxCell>
        <mxCell id="iiTU_1jp6Fe8OuMYfpJf-42" value="&lt;b&gt;esta_planificado&lt;/b&gt;" style="text;html=1;strokeColor=none;fillColor=none;align=center;verticalAlign=middle;whiteSpace=wrap;rounded=0;" parent="1" vertex="1">
          <mxGeometry x="670" y="170" width="120" height="30" as="geometry" />
        </mxCell>
        <mxCell id="iiTU_1jp6Fe8OuMYfpJf-43" value="&lt;ul&gt;&lt;li&gt;0: no&lt;/li&gt;&lt;li&gt;1: si&lt;/li&gt;&lt;/ul&gt;" style="text;strokeColor=none;fillColor=none;html=1;whiteSpace=wrap;verticalAlign=middle;overflow=hidden;" parent="1" vertex="1">
          <mxGeometry x="660" y="190" width="140" height="80" as="geometry" />
        </mxCell>
        <mxCell id="iiTU_1jp6Fe8OuMYfpJf-63" style="edgeStyle=none;rounded=0;orthogonalLoop=1;jettySize=auto;html=1;exitX=1;exitY=0.5;exitDx=0;exitDy=0;endArrow=none;endFill=0;" parent="1" source="iiTU_1jp6Fe8OuMYfpJf-44" target="iiTU_1jp6Fe8OuMYfpJf-9" edge="1">
          <mxGeometry relative="1" as="geometry" />
        </mxCell>
        <mxCell id="iiTU_1jp6Fe8OuMYfpJf-44" value="numero" style="ellipse;whiteSpace=wrap;html=1;align=center;fontStyle=4;fillColor=#dae8fc;strokeColor=#6c8ebf;" parent="1" vertex="1">
          <mxGeometry x="425" y="730" width="50" height="40" as="geometry" />
        </mxCell>
        <mxCell id="iiTU_1jp6Fe8OuMYfpJf-64" style="edgeStyle=none;rounded=0;orthogonalLoop=1;jettySize=auto;html=1;exitX=0.5;exitY=0;exitDx=0;exitDy=0;entryX=0.323;entryY=1.017;entryDx=0;entryDy=0;endArrow=none;endFill=0;entryPerimeter=0;" parent="1" source="iiTU_1jp6Fe8OuMYfpJf-45" target="iiTU_1jp6Fe8OuMYfpJf-9" edge="1">
          <mxGeometry relative="1" as="geometry" />
        </mxCell>
        <mxCell id="iiTU_1jp6Fe8OuMYfpJf-45" value="nombre" style="ellipse;whiteSpace=wrap;html=1;align=center;" parent="1" vertex="1">
          <mxGeometry x="485" y="750" width="100" height="30" as="geometry" />
        </mxCell>
        <mxCell id="iiTU_1jp6Fe8OuMYfpJf-46" value="&lt;ul&gt;&lt;li&gt;0: general&lt;/li&gt;&lt;li&gt;1: casa&lt;/li&gt;&lt;li&gt;2: trabajo&lt;/li&gt;&lt;li&gt;3: oficina&lt;/li&gt;&lt;li&gt;4: proyecto1&lt;/li&gt;&lt;li&gt;5: proyecto2&lt;/li&gt;&lt;li&gt;6: proyecto3&lt;/li&gt;&lt;li&gt;7: proyecto4&lt;/li&gt;&lt;li&gt;8: proyecto5&lt;/li&gt;&lt;li&gt;9: proyecto6&lt;/li&gt;&lt;li&gt;10: proyecto7&lt;/li&gt;&lt;/ul&gt;" style="text;strokeColor=none;fillColor=none;html=1;whiteSpace=wrap;verticalAlign=middle;overflow=hidden;" parent="1" vertex="1">
          <mxGeometry x="630" y="760" width="150" height="200" as="geometry" />
        </mxCell>
        <mxCell id="iiTU_1jp6Fe8OuMYfpJf-47" value="&lt;b&gt;categorÃ­a&lt;/b&gt;" style="text;html=1;strokeColor=none;fillColor=none;align=center;verticalAlign=middle;whiteSpace=wrap;rounded=0;" parent="1" vertex="1">
          <mxGeometry x="665" y="735" width="60" height="30" as="geometry" />
        </mxCell>
        <mxCell id="iiTU_1jp6Fe8OuMYfpJf-66" value="1:1" style="text;html=1;strokeColor=none;fillColor=none;align=center;verticalAlign=middle;whiteSpace=wrap;rounded=0;" parent="1" vertex="1">
          <mxGeometry x="215" y="330" width="60" height="30" as="geometry" />
        </mxCell>
        <mxCell id="iiTU_1jp6Fe8OuMYfpJf-67" value="1:1" style="text;html=1;strokeColor=none;fillColor=none;align=center;verticalAlign=middle;whiteSpace=wrap;rounded=0;" parent="1" vertex="1">
          <mxGeometry x="215" y="490" width="60" height="30" as="geometry" />
        </mxCell>
        <mxCell id="iiTU_1jp6Fe8OuMYfpJf-68" value="1:1" style="text;html=1;strokeColor=none;fillColor=none;align=center;verticalAlign=middle;whiteSpace=wrap;rounded=0;" parent="1" vertex="1">
          <mxGeometry x="255" y="410" width="60" height="30" as="geometry" />
        </mxCell>
        <mxCell id="iiTU_1jp6Fe8OuMYfpJf-69" value="1:N=10" style="text;html=1;strokeColor=none;fillColor=none;align=center;verticalAlign=middle;whiteSpace=wrap;rounded=0;" parent="1" vertex="1">
          <mxGeometry x="215" y="580" width="60" height="30" as="geometry" />
        </mxCell>
        <mxCell id="iiTU_1jp6Fe8OuMYfpJf-70" value="1:1" style="text;html=1;strokeColor=none;fillColor=none;align=center;verticalAlign=middle;whiteSpace=wrap;rounded=0;" parent="1" vertex="1">
          <mxGeometry x="409" y="640" width="60" height="30" as="geometry" />
        </mxCell>
        <mxCell id="iiTU_1jp6Fe8OuMYfpJf-71" value="N:N" style="text;html=1;strokeColor=none;fillColor=none;align=center;verticalAlign=middle;whiteSpace=wrap;rounded=0;" parent="1" vertex="1">
          <mxGeometry x="349" y="375" width="60" height="30" as="geometry" />
        </mxCell>
        <mxCell id="iiTU_1jp6Fe8OuMYfpJf-72" value="1:1" style="text;html=1;strokeColor=none;fillColor=none;align=center;verticalAlign=middle;whiteSpace=wrap;rounded=0;" parent="1" vertex="1">
          <mxGeometry x="485" y="480" width="60" height="30" as="geometry" />
        </mxCell>
        <mxCell id="iiTU_1jp6Fe8OuMYfpJf-73" value="1:0,N" style="text;html=1;strokeColor=none;fillColor=none;align=center;verticalAlign=middle;whiteSpace=wrap;rounded=0;" parent="1" vertex="1">
          <mxGeometry x="485" y="610" width="60" height="30" as="geometry" />
        </mxCell>
        <mxCell id="iiTU_1jp6Fe8OuMYfpJf-74" value="N:1" style="text;html=1;strokeColor=none;fillColor=none;align=center;verticalAlign=middle;whiteSpace=wrap;rounded=0;" parent="1" vertex="1">
          <mxGeometry x="445" y="545" width="60" height="30" as="geometry" />
        </mxCell>
        <mxCell id="iiTU_1jp6Fe8OuMYfpJf-75" value="cada persona tendrÃ¡ mÃ¡ximo solo 11 categorÃ­as.&lt;br&gt;Las 11 categorÃ­as se crearÃ¡n automÃ¡ticamente cuando se registre la persona&lt;br&gt;La categorÃ­a general no se podrÃ¡ eliminar.&lt;br&gt;Solo los restantes 10 se podrÃ¡n modificar o eliminar" style="text;html=1;strokeColor=none;fillColor=none;align=center;verticalAlign=middle;whiteSpace=wrap;rounded=0;" parent="1" vertex="1">
          <mxGeometry x="320" y="870" width="280" height="80" as="geometry" />
        </mxCell>
        <mxCell id="iiTU_1jp6Fe8OuMYfpJf-76" value="1:N=10" style="text;html=1;strokeColor=none;fillColor=none;align=center;verticalAlign=middle;whiteSpace=wrap;rounded=0;" parent="1" vertex="1">
          <mxGeometry x="305" y="600" width="60" height="30" as="geometry" />
        </mxCell>
        <mxCell id="iiTU_1jp6Fe8OuMYfpJf-77" value="&lt;font style=&quot;font-size: 14px;&quot;&gt;&lt;b&gt;SISTEMA DE GESTIÃN DE TAREAS&lt;/b&gt;&lt;/font&gt;" style="text;html=1;strokeColor=none;fillColor=none;align=center;verticalAlign=middle;whiteSpace=wrap;rounded=0;" parent="1" vertex="1">
          <mxGeometry x="40" y="40" width="260" height="30" as="geometry" />
        </mxCell>
        <mxCell id="3QfDOmTuFFgGfZDIjWxd-10" style="edgeStyle=orthogonalEdgeStyle;rounded=0;orthogonalLoop=1;jettySize=auto;html=1;exitX=0.5;exitY=0;exitDx=0;exitDy=0;entryX=0.5;entryY=1;entryDx=0;entryDy=0;fontSize=14;endArrow=none;endFill=0;" parent="1" source="3QfDOmTuFFgGfZDIjWxd-1" target="3QfDOmTuFFgGfZDIjWxd-8" edge="1">
          <mxGeometry relative="1" as="geometry" />
        </mxCell>
        <mxCell id="3QfDOmTuFFgGfZDIjWxd-1" value="persona" style="swimlane;childLayout=stackLayout;horizontal=1;startSize=30;horizontalStack=0;rounded=1;fontSize=14;fontStyle=0;strokeWidth=2;resizeParent=0;resizeLast=1;shadow=0;dashed=0;align=center;" parent="1" vertex="1">
          <mxGeometry x="880" y="300" width="160" height="160" as="geometry">
            <mxRectangle x="1020" y="140" width="80" height="30" as="alternateBounds" />
          </mxGeometry>
        </mxCell>
        <mxCell id="3QfDOmTuFFgGfZDIjWxd-2" value="ci [PK]&#xa;primer_nombre&#xa;segundo_nombre&#xa;primer_apellido&#xa;segundo_apellido&#xa;" style="align=left;strokeColor=none;fillColor=none;spacingLeft=4;fontSize=12;verticalAlign=top;resizable=0;rotatable=0;part=1;" parent="3QfDOmTuFFgGfZDIjWxd-1" vertex="1">
          <mxGeometry y="30" width="160" height="130" as="geometry" />
        </mxCell>
        <mxCell id="3QfDOmTuFFgGfZDIjWxd-3" value="&lt;b&gt;MODELO LÃGICO&lt;/b&gt;" style="text;html=1;strokeColor=none;fillColor=none;align=center;verticalAlign=middle;whiteSpace=wrap;rounded=0;" parent="1" vertex="1">
          <mxGeometry x="885" y="30" width="160" height="30" as="geometry" />
        </mxCell>
        <mxCell id="3QfDOmTuFFgGfZDIjWxd-8" value="usuario" style="swimlane;childLayout=stackLayout;horizontal=1;startSize=30;horizontalStack=0;rounded=1;fontSize=14;fontStyle=0;strokeWidth=2;resizeParent=0;resizeLast=1;shadow=0;dashed=0;align=center;" parent="1" vertex="1">
          <mxGeometry x="880" y="100" width="160" height="120" as="geometry">
            <mxRectangle x="1020" y="140" width="80" height="30" as="alternateBounds" />
          </mxGeometry>
        </mxCell>
        <mxCell id="3QfDOmTuFFgGfZDIjWxd-9" value="ci_persona [FK]&#xa;usuario&#xa;password&#xa;fecha_registro" style="align=left;strokeColor=none;fillColor=none;spacingLeft=4;fontSize=12;verticalAlign=top;resizable=0;rotatable=0;part=1;" parent="3QfDOmTuFFgGfZDIjWxd-8" vertex="1">
          <mxGeometry y="30" width="160" height="90" as="geometry" />
        </mxCell>
        <mxCell id="3QfDOmTuFFgGfZDIjWxd-11" value="categoria" style="swimlane;childLayout=stackLayout;horizontal=1;startSize=30;horizontalStack=0;rounded=1;fontSize=14;fontStyle=0;strokeWidth=2;resizeParent=0;resizeLast=1;shadow=0;dashed=0;align=center;" parent="1" vertex="1">
          <mxGeometry x="1161" y="335" width="160" height="90" as="geometry">
            <mxRectangle x="1020" y="140" width="80" height="30" as="alternateBounds" />
          </mxGeometry>
        </mxCell>
        <mxCell id="3QfDOmTuFFgGfZDIjWxd-12" value="numero [PK]&#xa;ci_persona [PK] [FK]&#xa;nombre&#xa;&#xa;" style="align=left;strokeColor=none;fillColor=none;spacingLeft=4;fontSize=12;verticalAlign=top;resizable=0;rotatable=0;part=1;" parent="3QfDOmTuFFgGfZDIjWxd-11" vertex="1">
          <mxGeometry y="30" width="160" height="60" as="geometry" />
        </mxCell>
        <mxCell id="3QfDOmTuFFgGfZDIjWxd-13" value="1" style="text;html=1;align=center;verticalAlign=middle;resizable=0;points=[];autosize=1;strokeColor=none;fillColor=none;fontSize=14;" parent="1" vertex="1">
          <mxGeometry x="965" y="215" width="30" height="30" as="geometry" />
        </mxCell>
        <mxCell id="3QfDOmTuFFgGfZDIjWxd-14" value="1" style="text;html=1;align=center;verticalAlign=middle;resizable=0;points=[];autosize=1;strokeColor=none;fillColor=none;fontSize=14;" parent="1" vertex="1">
          <mxGeometry x="965" y="270" width="30" height="30" as="geometry" />
        </mxCell>
        <mxCell id="3QfDOmTuFFgGfZDIjWxd-15" style="edgeStyle=orthogonalEdgeStyle;rounded=0;orthogonalLoop=1;jettySize=auto;html=1;exitX=1;exitY=0.5;exitDx=0;exitDy=0;fontSize=14;endArrow=none;endFill=0;" parent="1" source="3QfDOmTuFFgGfZDIjWxd-2" target="3QfDOmTuFFgGfZDIjWxd-12" edge="1">
          <mxGeometry relative="1" as="geometry" />
        </mxCell>
        <mxCell id="3QfDOmTuFFgGfZDIjWxd-16" value="1" style="text;html=1;align=center;verticalAlign=middle;resizable=0;points=[];autosize=1;strokeColor=none;fillColor=none;fontSize=14;" parent="1" vertex="1">
          <mxGeometry x="1045" y="360" width="30" height="30" as="geometry" />
        </mxCell>
        <mxCell id="3QfDOmTuFFgGfZDIjWxd-17" value="*" style="text;html=1;align=center;verticalAlign=middle;resizable=0;points=[];autosize=1;strokeColor=none;fillColor=none;fontSize=14;" parent="1" vertex="1">
          <mxGeometry x="1120" y="360" width="30" height="30" as="geometry" />
        </mxCell>
        <mxCell id="3QfDOmTuFFgGfZDIjWxd-18" value="tarea" style="swimlane;childLayout=stackLayout;horizontal=1;startSize=30;horizontalStack=0;rounded=1;fontSize=14;fontStyle=0;strokeWidth=2;resizeParent=0;resizeLast=1;shadow=0;dashed=0;align=center;" parent="1" vertex="1">
          <mxGeometry x="1425" y="270" width="160" height="190" as="geometry">
            <mxRectangle x="1020" y="140" width="80" height="30" as="alternateBounds" />
          </mxGeometry>
        </mxCell>
        <mxCell id="3QfDOmTuFFgGfZDIjWxd-19" value="numero [PK]&#xa;numero_categoria[PK][FK]&#xa;ci_persona[PK][FK]&#xa;fecha_registro&#xa;texto&#xa;tipo&#xa;estado&#xa;hacer_en_fecha&#xa;esta_planificado" style="align=left;strokeColor=none;fillColor=none;spacingLeft=4;fontSize=12;verticalAlign=top;resizable=0;rotatable=0;part=1;" parent="3QfDOmTuFFgGfZDIjWxd-18" vertex="1">
          <mxGeometry y="30" width="160" height="160" as="geometry" />
        </mxCell>
        <mxCell id="3QfDOmTuFFgGfZDIjWxd-20" style="edgeStyle=orthogonalEdgeStyle;rounded=0;orthogonalLoop=1;jettySize=auto;html=1;exitX=1;exitY=0.25;exitDx=0;exitDy=0;entryX=0;entryY=0.5;entryDx=0;entryDy=0;fontSize=14;endArrow=none;endFill=0;" parent="1" source="3QfDOmTuFFgGfZDIjWxd-12" target="3QfDOmTuFFgGfZDIjWxd-19" edge="1">
          <mxGeometry relative="1" as="geometry" />
        </mxCell>
        <mxCell id="3QfDOmTuFFgGfZDIjWxd-21" value="1" style="text;html=1;align=center;verticalAlign=middle;resizable=0;points=[];autosize=1;strokeColor=none;fillColor=none;fontSize=14;" parent="1" vertex="1">
          <mxGeometry x="1315" y="350" width="30" height="30" as="geometry" />
        </mxCell>
        <mxCell id="3QfDOmTuFFgGfZDIjWxd-22" value="*" style="text;html=1;align=center;verticalAlign=middle;resizable=0;points=[];autosize=1;strokeColor=none;fillColor=none;fontSize=14;" parent="1" vertex="1">
          <mxGeometry x="1395" y="350" width="30" height="30" as="geometry" />
        </mxCell>
        <mxCell id="3QfDOmTuFFgGfZDIjWxd-23" value="&lt;b&gt;MODELO FÃSICO&lt;/b&gt;" style="text;html=1;strokeColor=none;fillColor=none;align=center;verticalAlign=middle;whiteSpace=wrap;rounded=0;" parent="1" vertex="1">
          <mxGeometry x="875" y="530" width="160" height="30" as="geometry" />
        </mxCell>
        <mxCell id="3QfDOmTuFFgGfZDIjWxd-24" value="el &quot;id&quot; de la categorÃ­a irÃ¡ desde el 0 hasta el 10" style="text;html=1;strokeColor=none;fillColor=none;align=center;verticalAlign=middle;whiteSpace=wrap;rounded=0;" parent="1" vertex="1">
          <mxGeometry x="335" y="790" width="280" height="50" as="geometry" />
        </mxCell>
        <mxCell id="3QfDOmTuFFgGfZDIjWxd-25" value="el &quot;numero&quot; de la tarea empezarÃ¡ en 1&amp;nbsp;" style="text;html=1;strokeColor=none;fillColor=none;align=center;verticalAlign=middle;whiteSpace=wrap;rounded=0;" parent="1" vertex="1">
          <mxGeometry x="485" y="285" width="280" height="50" as="geometry" />
        </mxCell>
        <mxCell id="3QfDOmTuFFgGfZDIjWxd-27" value="tarea" style="swimlane;childLayout=stackLayout;horizontal=1;startSize=30;horizontalStack=0;rounded=1;fontSize=14;fontStyle=0;strokeWidth=2;resizeParent=0;resizeLast=1;shadow=0;dashed=0;align=center;" parent="1" vertex="1">
          <mxGeometry x="1185" y="70" width="160" height="190" as="geometry">
            <mxRectangle x="1020" y="140" width="80" height="30" as="alternateBounds" />
          </mxGeometry>
        </mxCell>
        <mxCell id="3QfDOmTuFFgGfZDIjWxd-28" value="numero [PK]&#xa;id_categoria[PK][FK]&#xa;ci_persona[PK][FK]&#xa;fecha_registro&#xa;texto&#xa;tipo&#xa;estado&#xa;hacer_en_fecha&#xa;esta_planificado" style="align=left;strokeColor=none;fillColor=none;spacingLeft=4;fontSize=12;verticalAlign=top;resizable=0;rotatable=0;part=1;" parent="3QfDOmTuFFgGfZDIjWxd-27" vertex="1">
          <mxGeometry y="30" width="160" height="160" as="geometry" />
        </mxCell>
        <mxCell id="3QfDOmTuFFgGfZDIjWxd-29" style="edgeStyle=orthogonalEdgeStyle;rounded=0;orthogonalLoop=1;jettySize=auto;html=1;exitX=1;exitY=0.25;exitDx=0;exitDy=0;entryX=0;entryY=0.5;entryDx=0;entryDy=0;fontSize=14;endArrow=none;endFill=0;" parent="1" source="3QfDOmTuFFgGfZDIjWxd-2" target="3QfDOmTuFFgGfZDIjWxd-27" edge="1">
          <mxGeometry relative="1" as="geometry" />
        </mxCell>
        <mxCell id="3QfDOmTuFFgGfZDIjWxd-30" value="1" style="text;html=1;align=center;verticalAlign=middle;resizable=0;points=[];autosize=1;strokeColor=none;fillColor=none;fontSize=14;" parent="1" vertex="1">
          <mxGeometry x="1035" y="335" width="30" height="30" as="geometry" />
        </mxCell>
        <mxCell id="3QfDOmTuFFgGfZDIjWxd-32" value="*" style="text;html=1;align=center;verticalAlign=middle;resizable=0;points=[];autosize=1;strokeColor=none;fillColor=none;fontSize=14;" parent="1" vertex="1">
          <mxGeometry x="1145" y="135" width="30" height="30" as="geometry" />
        </mxCell>
        <mxCell id="3QfDOmTuFFgGfZDIjWxd-34" style="edgeStyle=orthogonalEdgeStyle;rounded=0;orthogonalLoop=1;jettySize=auto;html=1;exitX=0.5;exitY=1;exitDx=0;exitDy=0;entryX=0.5;entryY=0;entryDx=0;entryDy=0;fontSize=14;endArrow=none;endFill=0;" parent="1" source="3QfDOmTuFFgGfZDIjWxd-28" target="3QfDOmTuFFgGfZDIjWxd-11" edge="1">
          <mxGeometry relative="1" as="geometry" />
        </mxCell>
        <mxCell id="3QfDOmTuFFgGfZDIjWxd-35" value="*" style="text;html=1;align=center;verticalAlign=middle;resizable=0;points=[];autosize=1;strokeColor=none;fillColor=none;fontSize=14;" parent="1" vertex="1">
          <mxGeometry x="1265" y="255" width="30" height="30" as="geometry" />
        </mxCell>
        <mxCell id="3QfDOmTuFFgGfZDIjWxd-36" value="1" style="text;html=1;align=center;verticalAlign=middle;resizable=0;points=[];autosize=1;strokeColor=none;fillColor=none;fontSize=14;" parent="1" vertex="1">
          <mxGeometry x="1245" y="315" width="30" height="30" as="geometry" />
        </mxCell>
        <mxCell id="3QfDOmTuFFgGfZDIjWxd-37" value="persona" style="shape=table;startSize=30;container=1;collapsible=1;childLayout=tableLayout;fixedRows=1;rowLines=0;fontStyle=1;align=center;resizeLast=1;fontSize=14;" parent="1" vertex="1">
          <mxGeometry x="875" y="840" width="325" height="190" as="geometry" />
        </mxCell>
        <mxCell id="3QfDOmTuFFgGfZDIjWxd-38" value="" style="shape=tableRow;horizontal=0;startSize=0;swimlaneHead=0;swimlaneBody=0;fillColor=none;collapsible=0;dropTarget=0;points=[[0,0.5],[1,0.5]];portConstraint=eastwest;top=0;left=0;right=0;bottom=1;fontSize=14;" parent="3QfDOmTuFFgGfZDIjWxd-37" vertex="1">
          <mxGeometry y="30" width="325" height="30" as="geometry" />
        </mxCell>
        <mxCell id="3QfDOmTuFFgGfZDIjWxd-39" value="PK" style="shape=partialRectangle;connectable=0;fillColor=none;top=0;left=0;bottom=0;right=0;fontStyle=1;overflow=hidden;fontSize=14;" parent="3QfDOmTuFFgGfZDIjWxd-38" vertex="1">
          <mxGeometry width="30" height="30" as="geometry">
            <mxRectangle width="30" height="30" as="alternateBounds" />
          </mxGeometry>
        </mxCell>
        <mxCell id="3QfDOmTuFFgGfZDIjWxd-40" value="ci: INT NOT NULL" style="shape=partialRectangle;connectable=0;fillColor=none;top=0;left=0;bottom=0;right=0;align=left;spacingLeft=6;fontStyle=5;overflow=hidden;fontSize=14;" parent="3QfDOmTuFFgGfZDIjWxd-38" vertex="1">
          <mxGeometry x="30" width="295" height="30" as="geometry">
            <mxRectangle width="295" height="30" as="alternateBounds" />
          </mxGeometry>
        </mxCell>
        <mxCell id="3QfDOmTuFFgGfZDIjWxd-41" value="" style="shape=tableRow;horizontal=0;startSize=0;swimlaneHead=0;swimlaneBody=0;fillColor=none;collapsible=0;dropTarget=0;points=[[0,0.5],[1,0.5]];portConstraint=eastwest;top=0;left=0;right=0;bottom=0;fontSize=14;" parent="3QfDOmTuFFgGfZDIjWxd-37" vertex="1">
          <mxGeometry y="60" width="325" height="30" as="geometry" />
        </mxCell>
        <mxCell id="3QfDOmTuFFgGfZDIjWxd-42" value="" style="shape=partialRectangle;connectable=0;fillColor=none;top=0;left=0;bottom=0;right=0;editable=1;overflow=hidden;fontSize=14;" parent="3QfDOmTuFFgGfZDIjWxd-41" vertex="1">
          <mxGeometry width="30" height="30" as="geometry">
            <mxRectangle width="30" height="30" as="alternateBounds" />
          </mxGeometry>
        </mxCell>
        <mxCell id="3QfDOmTuFFgGfZDIjWxd-43" value="primer_nombre: VARCHAR (50) NOT NULL" style="shape=partialRectangle;connectable=0;fillColor=none;top=0;left=0;bottom=0;right=0;align=left;spacingLeft=6;overflow=hidden;fontSize=14;" parent="3QfDOmTuFFgGfZDIjWxd-41" vertex="1">
          <mxGeometry x="30" width="295" height="30" as="geometry">
            <mxRectangle width="295" height="30" as="alternateBounds" />
          </mxGeometry>
        </mxCell>
        <mxCell id="3QfDOmTuFFgGfZDIjWxd-44" value="" style="shape=tableRow;horizontal=0;startSize=0;swimlaneHead=0;swimlaneBody=0;fillColor=none;collapsible=0;dropTarget=0;points=[[0,0.5],[1,0.5]];portConstraint=eastwest;top=0;left=0;right=0;bottom=0;fontSize=14;" parent="3QfDOmTuFFgGfZDIjWxd-37" vertex="1">
          <mxGeometry y="90" width="325" height="30" as="geometry" />
        </mxCell>
        <mxCell id="3QfDOmTuFFgGfZDIjWxd-45" value="" style="shape=partialRectangle;connectable=0;fillColor=none;top=0;left=0;bottom=0;right=0;editable=1;overflow=hidden;fontSize=14;" parent="3QfDOmTuFFgGfZDIjWxd-44" vertex="1">
          <mxGeometry width="30" height="30" as="geometry">
            <mxRectangle width="30" height="30" as="alternateBounds" />
          </mxGeometry>
        </mxCell>
        <mxCell id="3QfDOmTuFFgGfZDIjWxd-46" value="segundo_nombre: VARCHAR (50)" style="shape=partialRectangle;connectable=0;fillColor=none;top=0;left=0;bottom=0;right=0;align=left;spacingLeft=6;overflow=hidden;fontSize=14;" parent="3QfDOmTuFFgGfZDIjWxd-44" vertex="1">
          <mxGeometry x="30" width="295" height="30" as="geometry">
            <mxRectangle width="295" height="30" as="alternateBounds" />
          </mxGeometry>
        </mxCell>
        <mxCell id="3QfDOmTuFFgGfZDIjWxd-47" value="" style="shape=tableRow;horizontal=0;startSize=0;swimlaneHead=0;swimlaneBody=0;fillColor=none;collapsible=0;dropTarget=0;points=[[0,0.5],[1,0.5]];portConstraint=eastwest;top=0;left=0;right=0;bottom=0;fontSize=14;" parent="3QfDOmTuFFgGfZDIjWxd-37" vertex="1">
          <mxGeometry y="120" width="325" height="30" as="geometry" />
        </mxCell>
        <mxCell id="3QfDOmTuFFgGfZDIjWxd-48" value="" style="shape=partialRectangle;connectable=0;fillColor=none;top=0;left=0;bottom=0;right=0;editable=1;overflow=hidden;fontSize=14;" parent="3QfDOmTuFFgGfZDIjWxd-47" vertex="1">
          <mxGeometry width="30" height="30" as="geometry">
            <mxRectangle width="30" height="30" as="alternateBounds" />
          </mxGeometry>
        </mxCell>
        <mxCell id="3QfDOmTuFFgGfZDIjWxd-49" value="primer_apellido: VARCHAR (50) NOT NULL" style="shape=partialRectangle;connectable=0;fillColor=none;top=0;left=0;bottom=0;right=0;align=left;spacingLeft=6;overflow=hidden;fontSize=14;" parent="3QfDOmTuFFgGfZDIjWxd-47" vertex="1">
          <mxGeometry x="30" width="295" height="30" as="geometry">
            <mxRectangle width="295" height="30" as="alternateBounds" />
          </mxGeometry>
        </mxCell>
        <mxCell id="3QfDOmTuFFgGfZDIjWxd-89" value="" style="shape=tableRow;horizontal=0;startSize=0;swimlaneHead=0;swimlaneBody=0;fillColor=none;collapsible=0;dropTarget=0;points=[[0,0.5],[1,0.5]];portConstraint=eastwest;top=0;left=0;right=0;bottom=0;fontSize=14;" parent="3QfDOmTuFFgGfZDIjWxd-37" vertex="1">
          <mxGeometry y="150" width="325" height="30" as="geometry" />
        </mxCell>
        <mxCell id="3QfDOmTuFFgGfZDIjWxd-90" value="" style="shape=partialRectangle;connectable=0;fillColor=none;top=0;left=0;bottom=0;right=0;editable=1;overflow=hidden;fontSize=14;" parent="3QfDOmTuFFgGfZDIjWxd-89" vertex="1">
          <mxGeometry width="30" height="30" as="geometry">
            <mxRectangle width="30" height="30" as="alternateBounds" />
          </mxGeometry>
        </mxCell>
        <mxCell id="3QfDOmTuFFgGfZDIjWxd-91" value="segundo_apellido: VARCHAR (50)Â " style="shape=partialRectangle;connectable=0;fillColor=none;top=0;left=0;bottom=0;right=0;align=left;spacingLeft=6;overflow=hidden;fontSize=14;" parent="3QfDOmTuFFgGfZDIjWxd-89" vertex="1">
          <mxGeometry x="30" width="295" height="30" as="geometry">
            <mxRectangle width="295" height="30" as="alternateBounds" />
          </mxGeometry>
        </mxCell>
        <mxCell id="3QfDOmTuFFgGfZDIjWxd-92" value="usuario" style="shape=table;startSize=30;container=1;collapsible=1;childLayout=tableLayout;fixedRows=1;rowLines=0;fontStyle=1;align=center;resizeLast=1;fontSize=14;" parent="1" vertex="1">
          <mxGeometry x="870" y="600" width="300" height="160" as="geometry" />
        </mxCell>
        <mxCell id="3QfDOmTuFFgGfZDIjWxd-93" value="" style="shape=tableRow;horizontal=0;startSize=0;swimlaneHead=0;swimlaneBody=0;fillColor=none;collapsible=0;dropTarget=0;points=[[0,0.5],[1,0.5]];portConstraint=eastwest;top=0;left=0;right=0;bottom=1;fontSize=14;" parent="3QfDOmTuFFgGfZDIjWxd-92" vertex="1">
          <mxGeometry y="30" width="300" height="30" as="geometry" />
        </mxCell>
        <mxCell id="3QfDOmTuFFgGfZDIjWxd-94" value="PK, FK" style="shape=partialRectangle;connectable=0;fillColor=none;top=0;left=0;bottom=0;right=0;fontStyle=1;overflow=hidden;fontSize=14;" parent="3QfDOmTuFFgGfZDIjWxd-93" vertex="1">
          <mxGeometry width="50" height="30" as="geometry">
            <mxRectangle width="50" height="30" as="alternateBounds" />
          </mxGeometry>
        </mxCell>
        <mxCell id="3QfDOmTuFFgGfZDIjWxd-95" value="ci_persona: INT NOT NULL" style="shape=partialRectangle;connectable=0;fillColor=none;top=0;left=0;bottom=0;right=0;align=left;spacingLeft=6;fontStyle=5;overflow=hidden;fontSize=14;" parent="3QfDOmTuFFgGfZDIjWxd-93" vertex="1">
          <mxGeometry x="50" width="250" height="30" as="geometry">
            <mxRectangle width="250" height="30" as="alternateBounds" />
          </mxGeometry>
        </mxCell>
        <mxCell id="3QfDOmTuFFgGfZDIjWxd-96" value="" style="shape=tableRow;horizontal=0;startSize=0;swimlaneHead=0;swimlaneBody=0;fillColor=none;collapsible=0;dropTarget=0;points=[[0,0.5],[1,0.5]];portConstraint=eastwest;top=0;left=0;right=0;bottom=0;fontSize=14;" parent="3QfDOmTuFFgGfZDIjWxd-92" vertex="1">
          <mxGeometry y="60" width="300" height="30" as="geometry" />
        </mxCell>
        <mxCell id="3QfDOmTuFFgGfZDIjWxd-97" value="" style="shape=partialRectangle;connectable=0;fillColor=none;top=0;left=0;bottom=0;right=0;editable=1;overflow=hidden;fontSize=14;" parent="3QfDOmTuFFgGfZDIjWxd-96" vertex="1">
          <mxGeometry width="50" height="30" as="geometry">
            <mxRectangle width="50" height="30" as="alternateBounds" />
          </mxGeometry>
        </mxCell>
        <mxCell id="3QfDOmTuFFgGfZDIjWxd-98" value="usuario VARCHAR (50) NOT NULL" style="shape=partialRectangle;connectable=0;fillColor=none;top=0;left=0;bottom=0;right=0;align=left;spacingLeft=6;overflow=hidden;fontSize=14;" parent="3QfDOmTuFFgGfZDIjWxd-96" vertex="1">
          <mxGeometry x="50" width="250" height="30" as="geometry">
            <mxRectangle width="250" height="30" as="alternateBounds" />
          </mxGeometry>
        </mxCell>
        <mxCell id="3QfDOmTuFFgGfZDIjWxd-99" value="" style="shape=tableRow;horizontal=0;startSize=0;swimlaneHead=0;swimlaneBody=0;fillColor=none;collapsible=0;dropTarget=0;points=[[0,0.5],[1,0.5]];portConstraint=eastwest;top=0;left=0;right=0;bottom=0;fontSize=14;" parent="3QfDOmTuFFgGfZDIjWxd-92" vertex="1">
          <mxGeometry y="90" width="300" height="30" as="geometry" />
        </mxCell>
        <mxCell id="3QfDOmTuFFgGfZDIjWxd-100" value="" style="shape=partialRectangle;connectable=0;fillColor=none;top=0;left=0;bottom=0;right=0;editable=1;overflow=hidden;fontSize=14;" parent="3QfDOmTuFFgGfZDIjWxd-99" vertex="1">
          <mxGeometry width="50" height="30" as="geometry">
            <mxRectangle width="50" height="30" as="alternateBounds" />
          </mxGeometry>
        </mxCell>
        <mxCell id="3QfDOmTuFFgGfZDIjWxd-101" value="password: VARCHAR (50) NOT NULL" style="shape=partialRectangle;connectable=0;fillColor=none;top=0;left=0;bottom=0;right=0;align=left;spacingLeft=6;overflow=hidden;fontSize=14;" parent="3QfDOmTuFFgGfZDIjWxd-99" vertex="1">
          <mxGeometry x="50" width="250" height="30" as="geometry">
            <mxRectangle width="250" height="30" as="alternateBounds" />
          </mxGeometry>
        </mxCell>
        <mxCell id="3QfDOmTuFFgGfZDIjWxd-102" value="" style="shape=tableRow;horizontal=0;startSize=0;swimlaneHead=0;swimlaneBody=0;fillColor=none;collapsible=0;dropTarget=0;points=[[0,0.5],[1,0.5]];portConstraint=eastwest;top=0;left=0;right=0;bottom=0;fontSize=14;" parent="3QfDOmTuFFgGfZDIjWxd-92" vertex="1">
          <mxGeometry y="120" width="300" height="30" as="geometry" />
        </mxCell>
        <mxCell id="3QfDOmTuFFgGfZDIjWxd-103" value="" style="shape=partialRectangle;connectable=0;fillColor=none;top=0;left=0;bottom=0;right=0;editable=1;overflow=hidden;fontSize=14;" parent="3QfDOmTuFFgGfZDIjWxd-102" vertex="1">
          <mxGeometry width="50" height="30" as="geometry">
            <mxRectangle width="50" height="30" as="alternateBounds" />
          </mxGeometry>
        </mxCell>
        <mxCell id="3QfDOmTuFFgGfZDIjWxd-104" value="fecha_registro: DATETIME NOT NULL" style="shape=partialRectangle;connectable=0;fillColor=none;top=0;left=0;bottom=0;right=0;align=left;spacingLeft=6;overflow=hidden;fontSize=14;" parent="3QfDOmTuFFgGfZDIjWxd-102" vertex="1">
          <mxGeometry x="50" width="250" height="30" as="geometry">
            <mxRectangle width="250" height="30" as="alternateBounds" />
          </mxGeometry>
        </mxCell>
        <mxCell id="3QfDOmTuFFgGfZDIjWxd-109" value="" style="edgeStyle=orthogonalEdgeStyle;fontSize=12;html=1;endArrow=ERmandOne;startArrow=ERmandOne;rounded=0;entryX=0;entryY=0.5;entryDx=0;entryDy=0;exitX=0;exitY=0.5;exitDx=0;exitDy=0;" parent="1" source="3QfDOmTuFFgGfZDIjWxd-38" target="3QfDOmTuFFgGfZDIjWxd-93" edge="1">
          <mxGeometry width="100" height="100" relative="1" as="geometry">
            <mxPoint x="850" y="910" as="sourcePoint" />
            <mxPoint x="875" y="710" as="targetPoint" />
            <Array as="points">
              <mxPoint x="850" y="885" />
              <mxPoint x="850" y="645" />
            </Array>
          </mxGeometry>
        </mxCell>
        <mxCell id="3QfDOmTuFFgGfZDIjWxd-110" value="categoria" style="shape=table;startSize=30;container=1;collapsible=1;childLayout=tableLayout;fixedRows=1;rowLines=0;fontStyle=1;align=center;resizeLast=1;fontSize=14;" parent="1" vertex="1">
          <mxGeometry x="1245" y="970" width="340" height="130" as="geometry" />
        </mxCell>
        <mxCell id="3QfDOmTuFFgGfZDIjWxd-111" value="" style="shape=tableRow;horizontal=0;startSize=0;swimlaneHead=0;swimlaneBody=0;fillColor=none;collapsible=0;dropTarget=0;points=[[0,0.5],[1,0.5]];portConstraint=eastwest;top=0;left=0;right=0;bottom=1;fontSize=14;" parent="3QfDOmTuFFgGfZDIjWxd-110" vertex="1">
          <mxGeometry y="30" width="340" height="30" as="geometry" />
        </mxCell>
        <mxCell id="3QfDOmTuFFgGfZDIjWxd-112" value="PK" style="shape=partialRectangle;connectable=0;fillColor=none;top=0;left=0;bottom=0;right=0;fontStyle=1;overflow=hidden;fontSize=14;" parent="3QfDOmTuFFgGfZDIjWxd-111" vertex="1">
          <mxGeometry width="55" height="30" as="geometry">
            <mxRectangle width="55" height="30" as="alternateBounds" />
          </mxGeometry>
        </mxCell>
        <mxCell id="3QfDOmTuFFgGfZDIjWxd-113" value="numero: INT NOT NULL" style="shape=partialRectangle;connectable=0;fillColor=none;top=0;left=0;bottom=0;right=0;align=left;spacingLeft=6;fontStyle=5;overflow=hidden;fontSize=14;" parent="3QfDOmTuFFgGfZDIjWxd-111" vertex="1">
          <mxGeometry x="55" width="285" height="30" as="geometry">
            <mxRectangle width="285" height="30" as="alternateBounds" />
          </mxGeometry>
        </mxCell>
        <mxCell id="3QfDOmTuFFgGfZDIjWxd-129" value="" style="shape=tableRow;horizontal=0;startSize=0;swimlaneHead=0;swimlaneBody=0;fillColor=none;collapsible=0;dropTarget=0;points=[[0,0.5],[1,0.5]];portConstraint=eastwest;top=0;left=0;right=0;bottom=1;fontSize=14;" parent="3QfDOmTuFFgGfZDIjWxd-110" vertex="1">
          <mxGeometry y="60" width="340" height="30" as="geometry" />
        </mxCell>
        <mxCell id="3QfDOmTuFFgGfZDIjWxd-130" value="PK, FK" style="shape=partialRectangle;connectable=0;fillColor=none;top=0;left=0;bottom=0;right=0;fontStyle=1;overflow=hidden;fontSize=14;" parent="3QfDOmTuFFgGfZDIjWxd-129" vertex="1">
          <mxGeometry width="55" height="30" as="geometry">
            <mxRectangle width="55" height="30" as="alternateBounds" />
          </mxGeometry>
        </mxCell>
        <mxCell id="3QfDOmTuFFgGfZDIjWxd-131" value="ci_persona: INT NOT NULL" style="shape=partialRectangle;connectable=0;fillColor=none;top=0;left=0;bottom=0;right=0;align=left;spacingLeft=6;fontStyle=5;overflow=hidden;fontSize=14;" parent="3QfDOmTuFFgGfZDIjWxd-129" vertex="1">
          <mxGeometry x="55" width="285" height="30" as="geometry">
            <mxRectangle width="285" height="30" as="alternateBounds" />
          </mxGeometry>
        </mxCell>
        <mxCell id="3QfDOmTuFFgGfZDIjWxd-114" value="" style="shape=tableRow;horizontal=0;startSize=0;swimlaneHead=0;swimlaneBody=0;fillColor=none;collapsible=0;dropTarget=0;points=[[0,0.5],[1,0.5]];portConstraint=eastwest;top=0;left=0;right=0;bottom=0;fontSize=14;" parent="3QfDOmTuFFgGfZDIjWxd-110" vertex="1">
          <mxGeometry y="90" width="340" height="30" as="geometry" />
        </mxCell>
        <mxCell id="3QfDOmTuFFgGfZDIjWxd-115" value="" style="shape=partialRectangle;connectable=0;fillColor=none;top=0;left=0;bottom=0;right=0;editable=1;overflow=hidden;fontSize=14;" parent="3QfDOmTuFFgGfZDIjWxd-114" vertex="1">
          <mxGeometry width="55" height="30" as="geometry">
            <mxRectangle width="55" height="30" as="alternateBounds" />
          </mxGeometry>
        </mxCell>
        <mxCell id="3QfDOmTuFFgGfZDIjWxd-116" value="nombre: VARCHAR (50) NOT NULL" style="shape=partialRectangle;connectable=0;fillColor=none;top=0;left=0;bottom=0;right=0;align=left;spacingLeft=6;overflow=hidden;fontSize=14;" parent="3QfDOmTuFFgGfZDIjWxd-114" vertex="1">
          <mxGeometry x="55" width="285" height="30" as="geometry">
            <mxRectangle width="285" height="30" as="alternateBounds" />
          </mxGeometry>
        </mxCell>
        <mxCell id="3QfDOmTuFFgGfZDIjWxd-132" value="" style="edgeStyle=orthogonalEdgeStyle;fontSize=12;html=1;endArrow=ERoneToMany;rounded=0;exitX=1;exitY=0.5;exitDx=0;exitDy=0;entryX=0;entryY=0.5;entryDx=0;entryDy=0;" parent="1" source="3QfDOmTuFFgGfZDIjWxd-38" target="3QfDOmTuFFgGfZDIjWxd-129" edge="1">
          <mxGeometry width="100" height="100" relative="1" as="geometry">
            <mxPoint x="1260" y="1170" as="sourcePoint" />
            <mxPoint x="1360" y="1070" as="targetPoint" />
          </mxGeometry>
        </mxCell>
        <mxCell id="3QfDOmTuFFgGfZDIjWxd-133" value="tarea" style="shape=table;startSize=30;container=1;collapsible=1;childLayout=tableLayout;fixedRows=1;rowLines=0;fontStyle=1;align=center;resizeLast=1;fontSize=14;" parent="1" vertex="1">
          <mxGeometry x="1245" y="585" width="340" height="310" as="geometry" />
        </mxCell>
        <mxCell id="3QfDOmTuFFgGfZDIjWxd-134" value="" style="shape=tableRow;horizontal=0;startSize=0;swimlaneHead=0;swimlaneBody=0;fillColor=none;collapsible=0;dropTarget=0;points=[[0,0.5],[1,0.5]];portConstraint=eastwest;top=0;left=0;right=0;bottom=1;fontSize=14;" parent="3QfDOmTuFFgGfZDIjWxd-133" vertex="1">
          <mxGeometry y="30" width="340" height="30" as="geometry" />
        </mxCell>
        <mxCell id="3QfDOmTuFFgGfZDIjWxd-135" value="PK" style="shape=partialRectangle;connectable=0;fillColor=none;top=0;left=0;bottom=0;right=0;fontStyle=1;overflow=hidden;fontSize=14;" parent="3QfDOmTuFFgGfZDIjWxd-134" vertex="1">
          <mxGeometry width="55" height="30" as="geometry">
            <mxRectangle width="55" height="30" as="alternateBounds" />
          </mxGeometry>
        </mxCell>
        <mxCell id="3QfDOmTuFFgGfZDIjWxd-136" value="numero: INT NOT NULL" style="shape=partialRectangle;connectable=0;fillColor=none;top=0;left=0;bottom=0;right=0;align=left;spacingLeft=6;fontStyle=5;overflow=hidden;fontSize=14;" parent="3QfDOmTuFFgGfZDIjWxd-134" vertex="1">
          <mxGeometry x="55" width="285" height="30" as="geometry">
            <mxRectangle width="285" height="30" as="alternateBounds" />
          </mxGeometry>
        </mxCell>
        <mxCell id="3QfDOmTuFFgGfZDIjWxd-143" value="" style="shape=tableRow;horizontal=0;startSize=0;swimlaneHead=0;swimlaneBody=0;fillColor=none;collapsible=0;dropTarget=0;points=[[0,0.5],[1,0.5]];portConstraint=eastwest;top=0;left=0;right=0;bottom=1;fontSize=14;" parent="3QfDOmTuFFgGfZDIjWxd-133" vertex="1">
          <mxGeometry y="60" width="340" height="30" as="geometry" />
        </mxCell>
        <mxCell id="3QfDOmTuFFgGfZDIjWxd-144" value="PK,FK" style="shape=partialRectangle;connectable=0;fillColor=none;top=0;left=0;bottom=0;right=0;fontStyle=1;overflow=hidden;fontSize=14;" parent="3QfDOmTuFFgGfZDIjWxd-143" vertex="1">
          <mxGeometry width="55" height="30" as="geometry">
            <mxRectangle width="55" height="30" as="alternateBounds" />
          </mxGeometry>
        </mxCell>
        <mxCell id="3QfDOmTuFFgGfZDIjWxd-145" value="numero_categoria: INT NOT NULL" style="shape=partialRectangle;connectable=0;fillColor=none;top=0;left=0;bottom=0;right=0;align=left;spacingLeft=6;fontStyle=5;overflow=hidden;fontSize=14;" parent="3QfDOmTuFFgGfZDIjWxd-143" vertex="1">
          <mxGeometry x="55" width="285" height="30" as="geometry">
            <mxRectangle width="285" height="30" as="alternateBounds" />
          </mxGeometry>
        </mxCell>
        <mxCell id="3QfDOmTuFFgGfZDIjWxd-137" value="" style="shape=tableRow;horizontal=0;startSize=0;swimlaneHead=0;swimlaneBody=0;fillColor=none;collapsible=0;dropTarget=0;points=[[0,0.5],[1,0.5]];portConstraint=eastwest;top=0;left=0;right=0;bottom=1;fontSize=14;" parent="3QfDOmTuFFgGfZDIjWxd-133" vertex="1">
          <mxGeometry y="90" width="340" height="30" as="geometry" />
        </mxCell>
        <mxCell id="3QfDOmTuFFgGfZDIjWxd-138" value="PK, FK" style="shape=partialRectangle;connectable=0;fillColor=none;top=0;left=0;bottom=0;right=0;fontStyle=1;overflow=hidden;fontSize=14;" parent="3QfDOmTuFFgGfZDIjWxd-137" vertex="1">
          <mxGeometry width="55" height="30" as="geometry">
            <mxRectangle width="55" height="30" as="alternateBounds" />
          </mxGeometry>
        </mxCell>
        <mxCell id="3QfDOmTuFFgGfZDIjWxd-139" value="ci_persona: INT NOT NULL" style="shape=partialRectangle;connectable=0;fillColor=none;top=0;left=0;bottom=0;right=0;align=left;spacingLeft=6;fontStyle=5;overflow=hidden;fontSize=14;" parent="3QfDOmTuFFgGfZDIjWxd-137" vertex="1">
          <mxGeometry x="55" width="285" height="30" as="geometry">
            <mxRectangle width="285" height="30" as="alternateBounds" />
          </mxGeometry>
        </mxCell>
        <mxCell id="3QfDOmTuFFgGfZDIjWxd-140" value="" style="shape=tableRow;horizontal=0;startSize=0;swimlaneHead=0;swimlaneBody=0;fillColor=none;collapsible=0;dropTarget=0;points=[[0,0.5],[1,0.5]];portConstraint=eastwest;top=0;left=0;right=0;bottom=0;fontSize=14;" parent="3QfDOmTuFFgGfZDIjWxd-133" vertex="1">
          <mxGeometry y="120" width="340" height="30" as="geometry" />
        </mxCell>
        <mxCell id="3QfDOmTuFFgGfZDIjWxd-141" value="" style="shape=partialRectangle;connectable=0;fillColor=none;top=0;left=0;bottom=0;right=0;editable=1;overflow=hidden;fontSize=14;" parent="3QfDOmTuFFgGfZDIjWxd-140" vertex="1">
          <mxGeometry width="55" height="30" as="geometry">
            <mxRectangle width="55" height="30" as="alternateBounds" />
          </mxGeometry>
        </mxCell>
        <mxCell id="3QfDOmTuFFgGfZDIjWxd-142" value="fecha_registro: DATETIME NOT NULL" style="shape=partialRectangle;connectable=0;fillColor=none;top=0;left=0;bottom=0;right=0;align=left;spacingLeft=6;overflow=hidden;fontSize=14;" parent="3QfDOmTuFFgGfZDIjWxd-140" vertex="1">
          <mxGeometry x="55" width="285" height="30" as="geometry">
            <mxRectangle width="285" height="30" as="alternateBounds" />
          </mxGeometry>
        </mxCell>
        <mxCell id="3QfDOmTuFFgGfZDIjWxd-146" value="" style="shape=tableRow;horizontal=0;startSize=0;swimlaneHead=0;swimlaneBody=0;fillColor=none;collapsible=0;dropTarget=0;points=[[0,0.5],[1,0.5]];portConstraint=eastwest;top=0;left=0;right=0;bottom=0;fontSize=14;" parent="3QfDOmTuFFgGfZDIjWxd-133" vertex="1">
          <mxGeometry y="150" width="340" height="30" as="geometry" />
        </mxCell>
        <mxCell id="3QfDOmTuFFgGfZDIjWxd-147" value="" style="shape=partialRectangle;connectable=0;fillColor=none;top=0;left=0;bottom=0;right=0;editable=1;overflow=hidden;fontSize=14;" parent="3QfDOmTuFFgGfZDIjWxd-146" vertex="1">
          <mxGeometry width="55" height="30" as="geometry">
            <mxRectangle width="55" height="30" as="alternateBounds" />
          </mxGeometry>
        </mxCell>
        <mxCell id="3QfDOmTuFFgGfZDIjWxd-148" value="texto: VARCHAR (150) NOT NULL" style="shape=partialRectangle;connectable=0;fillColor=none;top=0;left=0;bottom=0;right=0;align=left;spacingLeft=6;overflow=hidden;fontSize=14;" parent="3QfDOmTuFFgGfZDIjWxd-146" vertex="1">
          <mxGeometry x="55" width="285" height="30" as="geometry">
            <mxRectangle width="285" height="30" as="alternateBounds" />
          </mxGeometry>
        </mxCell>
        <mxCell id="3QfDOmTuFFgGfZDIjWxd-149" value="" style="shape=tableRow;horizontal=0;startSize=0;swimlaneHead=0;swimlaneBody=0;fillColor=none;collapsible=0;dropTarget=0;points=[[0,0.5],[1,0.5]];portConstraint=eastwest;top=0;left=0;right=0;bottom=0;fontSize=14;" parent="3QfDOmTuFFgGfZDIjWxd-133" vertex="1">
          <mxGeometry y="180" width="340" height="30" as="geometry" />
        </mxCell>
        <mxCell id="3QfDOmTuFFgGfZDIjWxd-150" value="" style="shape=partialRectangle;connectable=0;fillColor=none;top=0;left=0;bottom=0;right=0;editable=1;overflow=hidden;fontSize=14;" parent="3QfDOmTuFFgGfZDIjWxd-149" vertex="1">
          <mxGeometry width="55" height="30" as="geometry">
            <mxRectangle width="55" height="30" as="alternateBounds" />
          </mxGeometry>
        </mxCell>
        <mxCell id="3QfDOmTuFFgGfZDIjWxd-151" value="tipo: INT NOT NULL" style="shape=partialRectangle;connectable=0;fillColor=none;top=0;left=0;bottom=0;right=0;align=left;spacingLeft=6;overflow=hidden;fontSize=14;" parent="3QfDOmTuFFgGfZDIjWxd-149" vertex="1">
          <mxGeometry x="55" width="285" height="30" as="geometry">
            <mxRectangle width="285" height="30" as="alternateBounds" />
          </mxGeometry>
        </mxCell>
        <mxCell id="3QfDOmTuFFgGfZDIjWxd-152" value="" style="shape=tableRow;horizontal=0;startSize=0;swimlaneHead=0;swimlaneBody=0;fillColor=none;collapsible=0;dropTarget=0;points=[[0,0.5],[1,0.5]];portConstraint=eastwest;top=0;left=0;right=0;bottom=0;fontSize=14;" parent="3QfDOmTuFFgGfZDIjWxd-133" vertex="1">
          <mxGeometry y="210" width="340" height="30" as="geometry" />
        </mxCell>
        <mxCell id="3QfDOmTuFFgGfZDIjWxd-153" value="" style="shape=partialRectangle;connectable=0;fillColor=none;top=0;left=0;bottom=0;right=0;editable=1;overflow=hidden;fontSize=14;" parent="3QfDOmTuFFgGfZDIjWxd-152" vertex="1">
          <mxGeometry width="55" height="30" as="geometry">
            <mxRectangle width="55" height="30" as="alternateBounds" />
          </mxGeometry>
        </mxCell>
        <mxCell id="3QfDOmTuFFgGfZDIjWxd-154" value="estado: INT NOT NULL" style="shape=partialRectangle;connectable=0;fillColor=none;top=0;left=0;bottom=0;right=0;align=left;spacingLeft=6;overflow=hidden;fontSize=14;" parent="3QfDOmTuFFgGfZDIjWxd-152" vertex="1">
          <mxGeometry x="55" width="285" height="30" as="geometry">
            <mxRectangle width="285" height="30" as="alternateBounds" />
          </mxGeometry>
        </mxCell>
        <mxCell id="3QfDOmTuFFgGfZDIjWxd-155" value="" style="shape=tableRow;horizontal=0;startSize=0;swimlaneHead=0;swimlaneBody=0;fillColor=none;collapsible=0;dropTarget=0;points=[[0,0.5],[1,0.5]];portConstraint=eastwest;top=0;left=0;right=0;bottom=0;fontSize=14;" parent="3QfDOmTuFFgGfZDIjWxd-133" vertex="1">
          <mxGeometry y="240" width="340" height="30" as="geometry" />
        </mxCell>
        <mxCell id="3QfDOmTuFFgGfZDIjWxd-156" value="" style="shape=partialRectangle;connectable=0;fillColor=none;top=0;left=0;bottom=0;right=0;editable=1;overflow=hidden;fontSize=14;" parent="3QfDOmTuFFgGfZDIjWxd-155" vertex="1">
          <mxGeometry width="55" height="30" as="geometry">
            <mxRectangle width="55" height="30" as="alternateBounds" />
          </mxGeometry>
        </mxCell>
        <mxCell id="3QfDOmTuFFgGfZDIjWxd-157" value="hacer_en_fecha: DATE NOT NULL" style="shape=partialRectangle;connectable=0;fillColor=none;top=0;left=0;bottom=0;right=0;align=left;spacingLeft=6;overflow=hidden;fontSize=14;" parent="3QfDOmTuFFgGfZDIjWxd-155" vertex="1">
          <mxGeometry x="55" width="285" height="30" as="geometry">
            <mxRectangle width="285" height="30" as="alternateBounds" />
          </mxGeometry>
        </mxCell>
        <mxCell id="3QfDOmTuFFgGfZDIjWxd-158" value="" style="shape=tableRow;horizontal=0;startSize=0;swimlaneHead=0;swimlaneBody=0;fillColor=none;collapsible=0;dropTarget=0;points=[[0,0.5],[1,0.5]];portConstraint=eastwest;top=0;left=0;right=0;bottom=0;fontSize=14;" parent="3QfDOmTuFFgGfZDIjWxd-133" vertex="1">
          <mxGeometry y="270" width="340" height="30" as="geometry" />
        </mxCell>
        <mxCell id="3QfDOmTuFFgGfZDIjWxd-159" value="" style="shape=partialRectangle;connectable=0;fillColor=none;top=0;left=0;bottom=0;right=0;editable=1;overflow=hidden;fontSize=14;" parent="3QfDOmTuFFgGfZDIjWxd-158" vertex="1">
          <mxGeometry width="55" height="30" as="geometry">
            <mxRectangle width="55" height="30" as="alternateBounds" />
          </mxGeometry>
        </mxCell>
        <mxCell id="3QfDOmTuFFgGfZDIjWxd-160" value="esta_planificado: BOOLEAN NOT NULL" style="shape=partialRectangle;connectable=0;fillColor=none;top=0;left=0;bottom=0;right=0;align=left;spacingLeft=6;overflow=hidden;fontSize=14;" parent="3QfDOmTuFFgGfZDIjWxd-158" vertex="1">
          <mxGeometry x="55" width="285" height="30" as="geometry">
            <mxRectangle width="285" height="30" as="alternateBounds" />
          </mxGeometry>
        </mxCell>
        <mxCell id="3QfDOmTuFFgGfZDIjWxd-161" value="" style="edgeStyle=entityRelationEdgeStyle;fontSize=12;html=1;endArrow=ERzeroToMany;startArrow=ERmandOne;rounded=0;exitX=1;exitY=0.5;exitDx=0;exitDy=0;entryX=1;entryY=0.5;entryDx=0;entryDy=0;" parent="1" source="3QfDOmTuFFgGfZDIjWxd-111" target="3QfDOmTuFFgGfZDIjWxd-137" edge="1">
          <mxGeometry width="100" height="100" relative="1" as="geometry">
            <mxPoint x="1690" y="720" as="sourcePoint" />
            <mxPoint x="1790" y="620" as="targetPoint" />
          </mxGeometry>
        </mxCell>
        <mxCell id="3QfDOmTuFFgGfZDIjWxd-162" value="" style="edgeStyle=orthogonalEdgeStyle;fontSize=12;html=1;endArrow=ERzeroToMany;startArrow=ERmandOne;rounded=0;" parent="1" source="3QfDOmTuFFgGfZDIjWxd-129" target="3QfDOmTuFFgGfZDIjWxd-143" edge="1">
          <mxGeometry width="100" height="100" relative="1" as="geometry">
            <mxPoint x="1800" y="630" as="sourcePoint" />
            <mxPoint x="1770" y="540" as="targetPoint" />
            <Array as="points">
              <mxPoint x="1640" y="1045" />
              <mxPoint x="1640" y="660" />
            </Array>
          </mxGeometry>
        </mxCell>
      </root>
    </mxGraphModel>
  </diagram>
</mxfile>
